<?xml version="1.0" encoding="UTF-8" standalone="no"?><!DOCTYPE svg PUBLIC "-//W3C//DTD SVG 1.1//EN" "http://www.w3.org/Graphics/SVG/1.1/DTD/svg11.dtd"><svg width="100%" height="100%" viewBox="0 0 192 192" version="1.1" xmlns="http://www.w3.org/2000/svg" xmlns:xlink="http://www.w3.org/1999/xlink" xml:space="preserve" xmlns:serif="http://www.serif.com/" style="fill-rule:evenodd;clip-rule:evenodd;stroke-linejoin:round;stroke-miterlimit:2;"><rect id="Artboard1" x="0" y="0" width="192" height="192" style="fill:none;"/><g id="Artboard11" serif:id="Artboard1"><path d="M22.445,124.268l-2.813,2.813l-5.625,-5.625l5.625,-5.625l2.813,2.812l-2.813,2.813l2.813,2.812Z"/><path d="M118.643,22.445l-2.812,-2.813l5.625,-5.625l5.625,5.625l-2.813,2.813l-2.812,-2.813l-2.813,2.813Z"/><path d="M169.555,67.732l2.813,-2.813l5.625,5.625l-5.625,5.625l-2.813,-2.812l2.813,-2.813l-2.813,-2.812Z"/><path d="M73.357,169.555l2.812,2.813l-5.625,5.625l-5.625,-5.625l2.813,-2.813l2.812,2.813l2.813,-2.813Z"/><g transform="matrix(0.707107,-0.707107,0.707107,0.707107,-108.145,-23.8583)"><g transform="matrix(64,0,0,64,102.083,251.617)"></g><text x="6.531px" y="251.617px" style="font-family:'Poppins-Bold', 'Poppins';font-weight:700;font-size:64px;">GH</text></g></g></svg>